# xmcd
#
# Track frame offsets:
#	150
#	14713
#	32903
#	49008
#	68298
#	91050
#	107703
#	126965
#	145900
#	167060
#	186168
#
# Disc length: 2840 seconds
#
# Revision: 1
# Processed by: cddbd v1.5PL3 Copyright (c) Steve Scherf et al.
# Submitted via: EasyCDDAExtractor 7.0.5.1
#
DISCID=910b160b
DTITLE=Megadeth - Countdown to Extinction
DYEAR=1992
DGENRE=Metal
TTITLE0=Skin O' My Teeth
TTITLE1=Symphony of Destruction
TTITLE2=Architecture of Aggression
TTITLE3=Foreclosure of a Dream
TTITLE4=Sweating Bullets
TTITLE5=This Was My Life
TTITLE6=Countdown to Extinction
TTITLE7=High Speed Dirt
TTITLE8=Psychotron
TTITLE9=Captive Honour
TTITLE10=Ashes in Your Mouth
EXTD=
EXTT0=
EXTT1=
EXTT2=
EXTT3=
EXTT4=
EXTT5=
EXTT6=
EXTT7=
EXTT8=
EXTT9=
EXTT10=
PLAYORDER=
